<?xml version="1.0" encoding="utf-8"?>
<!-- Generator: Adobe Illustrator 27.5.0, SVG Export Plug-In . SVG Version: 6.00 Build 0)  -->
<svg version="1.1" id="Layer_1" xmlns="http://www.w3.org/2000/svg" xmlns:xlink="http://www.w3.org/1999/xlink" x="0px" y="0px"
	 viewBox="0 0 4000 4000" style="enable-background:new 0 0 4000 4000;" xml:space="preserve">
<g>
	<rect style="fill:#FFFFFF;" width="4000" height="4000"/>
	<g>
		<path style="fill-rule:evenodd;clip-rule:evenodd;" d="M1324.204,2329.751v389.44c172.694,99.707,345.385,199.409,518.081,299.115
			v-262.513l-290.737-167.859v-126.927L1324.204,2329.751z M2675.796,1670.244v-389.44
			c-172.695-99.707-345.386-199.41-518.082-299.115v262.512l290.737,167.859v126.927L2675.796,1670.244z M2448.452,2587.935
			l-290.737,167.858v262.513c172.694-99.705,345.387-199.409,518.082-299.114c0-277.622,0-182.66,0-460.282l-227.344-131.257
			C2448.452,2361.522,2448.452,2354.066,2448.452,2587.935z M1324.204,1741.082l227.344,131.258c0-233.87,0-226.411,0-460.281
			l290.737-167.858V981.689c-172.694,99.704-345.387,199.409-518.081,299.114C1324.204,1558.424,1324.204,1463.46,1324.204,1741.082
			z"/>
		<path style="fill-rule:evenodd;clip-rule:evenodd;" d="M1232.275,2287.217v538.128l-91.93-53.075v-485.054H1232.275z
			 M1140.345,1262.531l91.93-53.077v618.5h-91.93V1262.531z"/>
		<path style="fill-rule:evenodd;clip-rule:evenodd;" d="M2767.725,2165.897v659.448l91.929-53.075v-606.373H2767.725z
			 M2859.655,1227.73l-91.929-53.077v541.88h91.929V1227.73z"/>
		<polygon style="fill-rule:evenodd;clip-rule:evenodd;" points="2000.001,2846.849 1886.328,2781.219 1886.328,2912.478 
			1886.328,3043.732 2000.001,3109.362 2113.672,3043.734 2113.672,2912.477 2113.672,2781.22 		"/>
		<polygon style="fill-rule:evenodd;clip-rule:evenodd;" points="1999.999,784.484 1140.345,1280.805 1140.345,1174.655 
			1999.999,678.333 2859.653,1174.655 2859.653,1280.805 		"/>
		<polygon style="fill-rule:evenodd;clip-rule:evenodd;" points="1999.999,3215.516 1140.345,2719.195 1140.345,2825.345 
			1999.999,3321.667 2859.653,2825.345 2859.653,2719.195 		"/>
		<polygon style="fill-rule:evenodd;clip-rule:evenodd;" points="1500.839,2431.732 1235.634,2278.613 1140.345,2223.598 
			1140.345,2329.749 1500.839,2537.881 		"/>
		<polygon style="fill-rule:evenodd;clip-rule:evenodd;" points="2113.672,1106.029 2113.672,974.774 1999.999,909.144 
			1886.328,974.772 1886.328,1106.03 1886.328,1237.286 1999.999,1171.657 2113.672,1237.287 		"/>
		<polygon style="fill-rule:evenodd;clip-rule:evenodd;" points="2499.162,1568.263 2764.367,1721.381 2859.655,1776.396 
			2859.655,1670.246 2499.162,1462.114 		"/>
		<polygon style="fill-rule:evenodd;clip-rule:evenodd;" points="1368.433,1766.618 1476.167,1566.304 2580.425,2203.846 
			2564.788,2457.333 		"/>
		<polygon style="fill-rule:evenodd;clip-rule:evenodd;" points="1140.346,1847.233 1140.345,1741.081 1551.548,1978.489 
			1551.548,2084.64 		"/>
		<polygon style="fill-rule:evenodd;clip-rule:evenodd;" points="2448.453,2021.504 2448.452,1915.351 2859.655,2152.759 
			2859.655,2258.91 		"/>
	</g>
</g>
</svg>
